<?xml version="1.0" encoding="utf-8"?>
<!-- Generator: Adobe Illustrator 16.0.0, SVG Export Plug-In . SVG Version: 6.00 Build 0)  -->
<!DOCTYPE svg PUBLIC "-//W3C//DTD SVG 1.1 Tiny//EN" "http://www.w3.org/Graphics/SVG/1.1/DTD/svg11-tiny.dtd">
<svg version="1.1" baseProfile="tiny" id="Layer_1" xmlns="http://www.w3.org/2000/svg" xmlns:xlink="http://www.w3.org/1999/xlink"
	 x="0px" y="0px" width="100px" height="100px" viewBox="0 0 100 100" xml:space="preserve">
<g>
	<polygon fill="#4F585C" points="44.368,89.484 50.381,99.619 56.394,89.484 	"/>
	<g>
		<path fill="#4F585C" d="M63.154,92.931H37.605c-13.559,0-24.59-11.03-24.59-24.588v-3.674h6.893v3.674
			c0,9.757,7.939,17.694,17.697,17.694h25.549c9.758,0,17.696-7.938,17.696-17.694v-3.674h6.894v3.674
			C87.744,81.9,76.715,92.931,63.154,92.931z"/>
		<path fill="#707A80" d="M84.298,64.669h-3.447v3.674c0,9.757-7.938,17.694-17.696,17.694H37.605
			c-9.758,0-17.697-7.938-17.697-17.694v-3.674h-3.216v5.691c0,10.545,8.58,19.124,19.124,19.124h29.356
			c10.545,0,19.125-8.579,19.125-19.124V64.669z"/>
	</g>
	<polygon fill="#4F585C" points="16.692,54.562 8.651,68.116 24.734,68.116 	"/>
	<polygon fill="#707A80" points="16.692,54.562 8.651,68.116 16.692,68.116 	"/>
	<polygon fill="#4F585C" points="84.298,54.562 76.256,68.116 92.339,68.116 	"/>
	<polygon fill="#707A80" points="84.298,54.562 76.256,68.116 84.298,68.116 	"/>
	<rect x="46.792" y="13.893" fill="#707A80" width="7.353" height="72.145"/>
	<rect x="50.468" y="13.893" fill="#4F585C" width="3.676" height="72.145"/>
	<rect x="24.734" y="20.786" fill="#707A80" width="51.522" height="6.204"/>
	<rect x="24.734" y="23.888" fill="#4F585C" width="51.522" height="3.102"/>
	<path fill="#4F585C" d="M50.698,0.796c-4.569,0-8.271,3.702-8.271,8.271c0,4.568,3.702,8.272,8.271,8.272s8.272-3.704,8.272-8.272
		C58.97,4.498,55.267,0.796,50.698,0.796z M50.698,12.283c-1.777,0-3.217-1.439-3.217-3.215c0-1.777,1.44-3.218,3.217-3.218
		c1.776,0,3.215,1.441,3.215,3.218C53.913,10.843,52.474,12.283,50.698,12.283z"/>
	<path fill="#707A80" d="M50.381,12.25c-1.626-0.161-2.9-1.516-2.9-3.183c0-1.668,1.273-3.024,2.9-3.185v-5.07
		c-4.421,0.167-7.954,3.794-7.954,8.255c0,4.462,3.533,8.086,7.954,8.256V12.25z"/>
</g>
</svg>
