<?xml version="1.0" encoding="utf-8"?>
<!-- Generator: Adobe Illustrator 16.0.0, SVG Export Plug-In . SVG Version: 6.00 Build 0)  -->
<!DOCTYPE svg PUBLIC "-//W3C//DTD SVG 1.1 Tiny//EN" "http://www.w3.org/Graphics/SVG/1.1/DTD/svg11-tiny.dtd">
<svg version="1.1" baseProfile="tiny" id="Layer_1" xmlns="http://www.w3.org/2000/svg" xmlns:xlink="http://www.w3.org/1999/xlink"
	 x="0px" y="0px" width="100px" height="100px" viewBox="0 0 100 100" xml:space="preserve">
<g>
	<rect x="9.913" y="2.442" fill="#A69876" width="7.051" height="96.949"/>
	<rect x="13.438" y="2.442" fill="#7B6548" width="3.525" height="96.949"/>
	<path fill="#231F20" d="M92.76,7.143c0,0-7.933,5.288-15.571,5.288c-7.638,0-13.217-5.288-29.67-5.288
		c-16.453,0-27.029,5.288-27.029,5.288v46.418c0,0,9.988-5.288,26.733-5.288s16.746,5.288,28.204,5.288
		c11.457,0,17.334-5.288,17.334-5.288v-6.46l-3.525-1.764l3.525-2.203v-5.875l-4.448-2.307l2.687-2.101l-4.351-0.82l6.112-4.027
		v-9.989l-5.288-1.174l5.288-4.555V7.143z"/>
	<path fill="#FFFFFF" d="M69.05,44.349l-8.806-4.907l8.806-4.907c0.85-0.474,1.156-1.547,0.682-2.398
		c-0.475-0.849-1.544-1.156-2.398-0.682l-10.708,5.968l-10.711-5.968c-0.851-0.474-1.925-0.167-2.398,0.682
		c-0.474,0.851-0.169,1.924,0.682,2.398l8.805,4.907l-8.805,4.907c-0.851,0.474-1.155,1.547-0.682,2.397
		c0.322,0.579,0.923,0.905,1.541,0.905c0.291,0,0.585-0.071,0.857-0.223l10.711-5.968l10.708,5.968
		c0.272,0.152,0.566,0.223,0.855,0.223c0.62,0,1.219-0.326,1.543-0.905C70.206,45.896,69.899,44.823,69.05,44.349z"/>
	<path fill="#FFFFFF" d="M56.33,13.021c-4.381,0-7.932,3.551-7.932,7.932c0,2.988,1.671,5.559,4.112,6.911v4.105h7.64v-4.104
		c2.441-1.353,4.113-3.924,4.113-6.912C64.263,16.572,60.711,13.021,56.33,13.021z M53.355,23.928c-1.104,0-1.999-0.895-1.999-1.999
		c0-1.104,0.896-2,1.999-2s1.998,0.895,1.998,2C55.354,23.033,54.459,23.928,53.355,23.928z M59.379,23.928
		c-1.105,0-2-0.895-2-1.999c0-1.104,0.895-2,2-2c1.104,0,1.998,0.895,1.998,2C61.377,23.033,60.482,23.928,59.379,23.928z"/>
</g>
</svg>
