<?xml version="1.0" encoding="utf-8"?>
<!-- Generator: Adobe Illustrator 16.0.0, SVG Export Plug-In . SVG Version: 6.00 Build 0)  -->
<!DOCTYPE svg PUBLIC "-//W3C//DTD SVG 1.1 Tiny//EN" "http://www.w3.org/Graphics/SVG/1.1/DTD/svg11-tiny.dtd">
<svg version="1.1" baseProfile="tiny" id="Layer_1" xmlns="http://www.w3.org/2000/svg" xmlns:xlink="http://www.w3.org/1999/xlink"
	 x="0px" y="0px" width="100px" height="100px" viewBox="0 0 100 100" xml:space="preserve">
<g>
	<g>
		<path fill="#EC1C24" d="M68.774,34.332c0,2.613,4.755,2.577,4.755-0.16c0-1.404-0.02-0.911-0.02-2.384
			c0-1.051,0.735-1.678,0.735-0.092c0,0,0.001,0.5,0.001,2.713c0,3.42-0.829,7.561-5.441,7.561c-3.252,0-7.156,0-13.059,0
			c-4.219,0-7.639-3.42-7.639-7.638V9.988c0-4.218,3.42-7.638,7.639-7.638h5.391c4.218,0,7.638,3.42,7.638,7.638V34.332z"/>
		<path fill="#D6B9A2" d="M55.714,21.042c-1.76,0-3.187-1.615-3.187-3.608v11.871h6.826v-8.263H55.714z"/>
		<path fill="#E8C7AC" d="M62.999,5.487h-6.863c-1.992,0-3.608,1.615-3.608,3.608v3.507c-0.874,0.065-1.564,0.793-1.564,1.684
			c0,0.892,0.69,1.62,1.564,1.685v2.123c0,1.993,1.616,3.608,3.608,3.608h6.863c1.993,0,3.608-1.616,3.608-3.608v-9
			C66.607,7.103,64.992,5.487,62.999,5.487z"/>
		<polygon fill="#F69339" points="52.553,5.92 53.223,7.278 54.72,7.496 53.637,8.552 53.892,10.043 52.553,9.339 51.213,10.043 
			51.469,8.552 50.385,7.496 51.883,7.278 		"/>
		<path fill="#EE4351" d="M62.272,1.346h-8.291v0.548c0,4.424,3.586,8.01,8.01,8.01h8.291V9.356
			C70.282,4.932,66.696,1.346,62.272,1.346z"/>
		<path d="M61.949,16.702h-0.956c-0.137,0-0.248-0.111-0.248-0.248s0.111-0.248,0.248-0.248h0.956c0.364,0,0.66-0.296,0.66-0.66
			v-2.265c0-0.137,0.111-0.248,0.248-0.248s0.248,0.111,0.248,0.248v2.265C63.105,16.183,62.586,16.702,61.949,16.702z"/>
		<path d="M58.188,14.109c-1.126,0-2.042-0.917-2.042-2.042c0-0.137,0.11-0.248,0.247-0.248s0.248,0.111,0.248,0.248
			c0,0.853,0.693,1.546,1.547,1.546c0.853,0,1.546-0.693,1.546-1.546c0-0.137,0.111-0.248,0.248-0.248s0.248,0.111,0.248,0.248
			C60.229,13.193,59.313,14.109,58.188,14.109z"/>
		<path d="M66.607,14.109c-1.126,0-2.042-0.917-2.042-2.042c0-0.137,0.11-0.248,0.248-0.248c0.136,0,0.247,0.111,0.247,0.248
			c0,0.853,0.694,1.546,1.547,1.546c0.137,0,0.248,0.111,0.248,0.248C66.855,13.999,66.744,14.109,66.607,14.109z"/>
		<path fill="#EC1C24" d="M62.604,18.553c0-0.305-0.247-0.553-0.553-0.553h-2.123c-0.307,0-0.555,0.248-0.555,0.553l0,0
			c0,0.306,0.248,0.554,0.555,0.554h2.123C62.356,19.107,62.604,18.859,62.604,18.553L62.604,18.553z"/>
		<path fill="#EE4351" d="M61.865,19.661c0-0.306-0.249-0.554-0.554-0.554h-0.646c-0.306,0-0.555,0.248-0.555,0.554l0,0
			c0,0.306,0.249,0.554,0.555,0.554h0.646C61.616,20.214,61.865,19.967,61.865,19.661L61.865,19.661z"/>
	</g>
	<path fill="#D0AF96" d="M74.526,43.259c-5.185,0-9.387-4.203-9.387-9.387H62.44c0,6.675,5.411,12.085,12.086,12.085
		c6.674,0,12.085-5.411,12.085-12.085h-2.699C83.912,39.056,79.71,43.259,74.526,43.259z"/>
	<path fill="#E8C7AC" d="M47.664,33.552c0-0.668,0.542-1.209,1.209-1.209s1.209,0.541,1.209,1.209c0,0,0,3.086,0,5.729
		c0,3.193,3.309,3.046,3.309,5.72c0,1.379-0.65,2.826-1.28,3.907c-0.458,0.514-0.851,1.085-1.164,1.704l-0.001,0.002v0
		c-0.548,1.082-0.863,2.302-0.863,3.598c0,0.019,0.002,0.037,0.002,0.056c0.001,0,0.002-0.001,0.003-0.001
		c1.253-0.498,2.617-0.779,4.045-0.779c4.744,0,8.773,3.013,10.312,7.224c0.686-1.432,1.075-3.031,1.075-4.725
		c0-1.136-0.173-2.229-0.492-3.26c0,0-2.386-2.323-2.386-6.5c0-2.101,2.61-1.44,2.61-6.947c0-2.644,0-6.954,0-6.954
		c0-3.032-2.458-5.491-5.492-5.491h-9.304c-3.031,0-5.491,2.458-5.491,5.491v2.659h2.698V33.552z"/>
	<path fill="#E8C7AC" d="M35.623,43.259c-5.185,0-9.387-4.203-9.387-9.387h-2.698c0,6.675,5.411,12.085,12.085,12.085
		c6.674,0,12.084-5.411,12.084-12.085h-2.698C45.009,39.056,40.807,43.259,35.623,43.259z"/>
	<path fill="#E8C7AC" d="M57.439,34.326c2.235,0,4.047,1.812,4.047,4.047c0,2.235-1.812,4.047-4.047,4.047
		c-1.117,0-2.129-0.453-2.862-1.185"/>
	<path fill="#D0AF96" d="M57.439,42.668c-1.146,0-2.226-0.447-3.037-1.258c-0.097-0.097-0.097-0.253,0-0.35s0.253-0.097,0.35,0
		c0.719,0.717,1.673,1.113,2.688,1.113c2.095,0,3.799-1.705,3.799-3.8c0-2.095-1.704-3.799-3.799-3.799
		c-0.137,0-0.248-0.111-0.248-0.248s0.111-0.248,0.248-0.248c2.368,0,4.295,1.927,4.295,4.295
		C61.734,40.741,59.808,42.668,57.439,42.668z"/>
	<path fill="#E8C7AC" d="M65.216,34.326c2.235,0,4.048,1.812,4.048,4.047c0,2.235-1.813,4.047-4.048,4.047
		c-1.117,0-2.129-0.453-2.862-1.185"/>
	<path fill="#EC1C24" d="M65.028,52.728c0.319,1.03,0.492,2.124,0.492,3.26c0,1.693-0.39,3.293-1.075,4.725
		c-1.538-4.211-5.567-7.224-10.312-7.224c-6.066,0-10.984,4.919-10.984,10.985c0,6.031,4.86,10.922,10.877,10.98
		c0.327,1.131,0.514,2.322,0.514,3.56c0,7.118-5.77,12.888-12.887,12.888c-7.118,0-12.887-5.77-12.887-12.888
		c0-3.856,1.703-7.308,4.388-9.669l-0.202-6.936l-17.492,3.523c5.666,5.507,7.728,13.017,8.271,14.706
		c3.387,10.539,13.131,18.198,24.774,18.198c14.371,0,26.019-11.649,26.019-26.019C74.526,64.725,70.826,57.498,65.028,52.728z"/>
	<path fill="#EE4351" d="M26.035,63.417c0,3.134,0.835,6.07,2.288,8.606c6.729-2.387,11.549-8.805,11.549-16.352
		c0-3.133-0.835-6.069-2.288-8.606C30.855,49.452,26.035,55.871,26.035,63.417z"/>
	<path fill="#EE4351" d="M14.415,47.042c-1.461,2.542-2.302,5.488-2.302,8.63c0,7.573,4.854,14.01,11.62,16.376
		c1.461-2.542,2.302-5.487,2.302-8.631C26.035,55.845,21.18,49.408,14.415,47.042z"/>
	<path fill="#D0AF96" d="M62.707,55.055c-0.028,0-0.057-0.005-0.085-0.016c-0.52-0.189-0.869-0.688-0.869-1.238
		c0-0.55,0.35-1.048,0.869-1.237c0.127-0.048,0.271,0.019,0.317,0.147c0.048,0.129-0.019,0.271-0.147,0.317
		c-0.325,0.119-0.544,0.43-0.544,0.772c0,0.344,0.219,0.654,0.544,0.773c0.129,0.047,0.195,0.188,0.147,0.317
		C62.903,54.992,62.808,55.055,62.707,55.055z"/>
	<path fill="#D0AF96" d="M87.134,26.934c-0.236,0-0.428,0.191-0.428,0.427v2.268c-0.053-0.009-0.105-0.017-0.161-0.017h-0.124V26.45
		c0-0.236-0.192-0.428-0.428-0.428s-0.427,0.191-0.427,0.428v3.162H85.28v-3.618c0-0.236-0.19-0.427-0.427-0.427
		s-0.428,0.191-0.428,0.427v3.618h-0.285V26.45c0-0.236-0.191-0.428-0.428-0.428c-0.235,0-0.427,0.191-0.427,0.428v3.968
		c-0.146-0.026-0.283-0.117-0.361-0.339l0,0l-0.418-1.183c-0.082-0.222-0.327-0.335-0.549-0.254s-0.336,0.327-0.254,0.549
		l1.317,3.724c0.031,0.534,0.47,0.957,1.01,0.957h2.514c0.561,0,1.016-0.454,1.016-1.016v-0.821v-1.407v-3.266
		C87.561,27.125,87.368,26.934,87.134,26.934z"/>
	<path fill="#E8C7AC" d="M23.028,26.934c0.236,0,0.427,0.191,0.427,0.427v2.268c0.052-0.009,0.105-0.017,0.161-0.017h0.124V26.45
		c0-0.236,0.192-0.428,0.428-0.428s0.427,0.191,0.427,0.428v3.162h0.286v-3.618c0-0.236,0.191-0.427,0.427-0.427
		c0.236,0,0.428,0.191,0.428,0.427v3.618h0.284V26.45c0-0.236,0.192-0.428,0.428-0.428c0.235,0,0.427,0.191,0.427,0.428v3.968
		c0.146-0.026,0.283-0.117,0.361-0.339l0,0l0.418-1.183c0.081-0.222,0.326-0.335,0.548-0.254c0.221,0.081,0.335,0.327,0.254,0.549
		l-1.318,3.724c-0.031,0.534-0.469,0.957-1.01,0.957h-2.513c-0.562,0-1.016-0.454-1.016-1.016v-0.821v-1.407v-3.266
		C22.601,27.125,22.792,26.934,23.028,26.934z"/>
	<polygon fill="#F69339" points="68.775,36.311 69.445,37.668 70.942,37.886 69.859,38.943 70.115,40.435 68.775,39.73 
		67.436,40.435 67.691,38.943 66.607,37.886 68.105,37.668 	"/>
	<polygon fill="#F69339" points="60.988,36.311 61.658,37.668 63.156,37.886 62.072,38.943 62.328,40.435 60.988,39.73 
		59.648,40.435 59.905,38.943 58.82,37.886 60.318,37.668 	"/>
</g>
</svg>
