<?xml version="1.0" encoding="utf-8"?>
<!-- Generator: Adobe Illustrator 16.0.0, SVG Export Plug-In . SVG Version: 6.00 Build 0)  -->
<!DOCTYPE svg PUBLIC "-//W3C//DTD SVG 1.1 Tiny//EN" "http://www.w3.org/Graphics/SVG/1.1/DTD/svg11-tiny.dtd">
<svg version="1.1" baseProfile="tiny" id="Layer_1" xmlns="http://www.w3.org/2000/svg" xmlns:xlink="http://www.w3.org/1999/xlink"
	 x="0px" y="0px" width="100px" height="100px" viewBox="0 0 100 100" xml:space="preserve">
<g>
	<g>
		<circle fill="#652D90" cx="27.696" cy="51.965" r="0.645"/>
		<circle fill="#652D90" cx="27.696" cy="49.682" r="0.645"/>
		<circle fill="#652D90" cx="27.696" cy="47.398" r="0.645"/>
		<circle fill="#652D90" cx="27.696" cy="45.115" r="0.645"/>
		<circle fill="#652D90" cx="27.696" cy="42.832" r="0.645"/>
		<circle fill="#652D90" cx="27.696" cy="40.548" r="0.645"/>
		<circle fill="#652D90" cx="27.696" cy="38.265" r="0.645"/>
		<circle fill="#652D90" cx="26.809" cy="36.176" r="0.645"/>
		<circle fill="#652D90" cx="21.651" cy="42.832" r="0.645"/>
		<circle fill="#652D90" cx="21.651" cy="40.548" r="0.645"/>
		<circle fill="#652D90" cx="21.651" cy="38.265" r="0.645"/>
		<circle fill="#652D90" cx="2.585" cy="51.965" r="0.645"/>
		<circle fill="#652D90" cx="2.585" cy="49.682" r="0.645"/>
		<circle fill="#652D90" cx="2.585" cy="47.398" r="0.645"/>
		<circle fill="#652D90" cx="22.537" cy="36.176" r="0.645"/>
		<circle fill="#652D90" cx="24.588" cy="35.281" r="0.645"/>
		<circle fill="#652D90" cx="19.099" cy="51.965" r="0.645"/>
		<circle fill="#652D90" cx="16.132" cy="51.965" r="0.645"/>
		<circle fill="#652D90" cx="17.538" cy="50.595" r="0.645"/>
		<circle fill="#652D90" cx="85.062" cy="51.965" r="0.645"/>
		<circle fill="#652D90" cx="82.095" cy="51.965" r="0.645"/>
		<circle fill="#652D90" cx="83.5" cy="50.595" r="0.645"/>
		<circle fill="#652D90" cx="71.704" cy="45.259" r="0.645"/>
		<circle fill="#652D90" cx="71.704" cy="42.976" r="0.645"/>
		<circle fill="#652D90" cx="71.704" cy="47.542" r="0.645"/>
		<circle fill="#652D90" cx="71.704" cy="49.831" r="0.645"/>
		<circle fill="#652D90" cx="71.704" cy="52.113" r="0.645"/>
		<circle fill="#652D90" cx="71.704" cy="40.693" r="0.645"/>
		<circle fill="#652D90" cx="71.704" cy="38.409" r="0.645"/>
		<circle fill="#652D90" cx="71.704" cy="36.126" r="0.645"/>
		<circle fill="#652D90" cx="71.704" cy="33.842" r="0.645"/>
		<circle fill="#652D90" cx="98.355" cy="45.256" r="0.645"/>
		<circle fill="#652D90" cx="98.355" cy="42.973" r="0.645"/>
		<circle fill="#652D90" cx="98.355" cy="47.54" r="0.645"/>
		<circle fill="#652D90" cx="98.355" cy="49.828" r="0.645"/>
		<circle fill="#652D90" cx="98.355" cy="52.111" r="0.645"/>
		<circle fill="#652D90" cx="98.355" cy="40.69" r="0.645"/>
		<circle fill="#652D90" cx="98.355" cy="38.406" r="0.645"/>
		<circle fill="#652D90" cx="71.704" cy="31.56" r="0.645"/>
		<circle fill="#652D90" cx="71.962" cy="29.002" r="0.645"/>
		<circle fill="#652D90" cx="73.548" cy="27.511" r="0.645"/>
		<circle fill="#652D90" cx="75.734" cy="27.296" r="0.644"/>
		<circle fill="#652D90" cx="78.133" cy="27.296" r="0.645"/>
		<circle fill="#652D90" cx="80.533" cy="27.296" r="0.645"/>
		<circle fill="#652D90" cx="82.934" cy="27.296" r="0.646"/>
	</g>
	<g>
		<path fill="#90278E" d="M37.075,78.114c-5.085,0-9.222-4.136-9.222-9.222V44.592h5.159v24.301c0,2.241,1.822,4.063,4.063,4.063
			c2.24,0,4.063-1.822,4.063-4.063V44.592h5.158v24.301C46.296,73.979,42.16,78.114,37.075,78.114z"/>
		<path fill="#90278E" d="M65.166,76.824c-3.634,0-6.591-2.955-6.591-6.59V55.556h5.158v14.679c0,0.79,0.643,1.433,1.433,1.433
			s1.433-0.643,1.433-1.433V32.697h5.158v37.537C71.757,73.869,68.8,76.824,65.166,76.824z"/>
		<path fill="#90278E" d="M33.012,59.362h-5.159V38.63c0-1.703-1.385-3.087-3.087-3.087c-1.702,0-3.088,1.385-3.088,3.087v5.961
			c0,0-5.158,1.382-5.158-4.745V38.63c0-4.547,3.699-8.246,8.246-8.246c4.546,0,8.246,3.699,8.246,8.246V59.362z"/>
		<path fill="#90278E" d="M24.258,58.774h-5.159V51.76c0-0.813-0.662-1.475-1.475-1.475c-0.814,0-1.476,0.663-1.476,1.475v5.506
			H10.99V51.76c0-3.658,2.976-6.634,6.634-6.634c3.657,0,6.634,2.976,6.634,6.634V58.774z"/>
		<path fill="#90278E" d="M9.514,65.146c-3.658,0-6.634-2.977-6.634-6.635V45.894c0,0,5.158-1.318,5.158,4.844
			c0,2.758,0,7.773,0,7.773c0,0.813,0.663,1.476,1.476,1.476s1.476-0.662,1.476-1.476v-5.507h5.158v5.507
			C16.147,62.169,13.172,65.146,9.514,65.146z"/>
		<path fill="#90278E" d="M46.745,68.228H27.049c-4.383,0-7.95-3.566-7.95-7.951v-4.3h5.159v4.3c0,1.54,1.252,2.792,2.791,2.792
			h19.696V68.228z"/>
		<path fill="#90278E" d="M82.14,59.022H76.98v-7.014c0-3.658,2.977-6.634,6.635-6.634s6.633,2.976,6.633,6.634v5.506H85.09v-5.506
			c0-0.813-0.661-1.476-1.475-1.476s-1.476,0.663-1.476,1.476V59.022z"/>
		<path fill="#90278E" d="M91.725,64.532c-3.658,0-6.635-2.974-6.635-6.634v-5.506h5.158v5.506c0,0.813,0.663,1.475,1.477,1.475
			s1.476-0.661,1.476-1.475c0,0,0-10.994,0-16.618c0-5.625,5.157-4.434,5.157-4.434v21.051
			C98.357,61.559,95.383,64.532,91.725,64.532z"/>
		<path fill="#90278E" d="M74.188,69.335H54.492v-5.157h19.696c1.539,0,2.792-1.254,2.792-2.794v-4.301h5.159v4.301
			C82.14,65.77,78.572,69.335,74.188,69.335z"/>
		<path fill="#90278E" d="M71.757,34.483h-5.158v-4.3c0-4.384,3.567-7.951,7.95-7.951c0,0,1.758,0,5.448,0
			c5.408,0,4.44,5.158,4.44,5.158h-9.889c-1.54,0-2.792,1.253-2.792,2.793V34.483z"/>
	</g>
	<path fill="#652D90" d="M66.151,33.089h-2.947h-6.188h-2.831c-7.27,0-13.163,5.894-13.163,13.163v8.211v2.098v13.147h22.783V56.561
		v-2.098v-3.501h2.347c4.937,0,8.938-4.001,8.938-8.938C75.09,37.09,71.088,33.089,66.151,33.089z"/>
	<path fill="#90278E" d="M57.572,36.476c1.87,0,3.387-1.516,3.387-3.387h-3.943h-2.831C54.185,34.959,55.701,36.476,57.572,36.476z"
		/>
	<circle fill="#90278E" cx="62.592" cy="35.947" r="1.425"/>
	<circle fill="#90278E" cx="59.688" cy="38.105" r="1.049"/>
</g>
</svg>
