<?xml version="1.0" encoding="utf-8"?>
<!-- Generator: Adobe Illustrator 16.0.0, SVG Export Plug-In . SVG Version: 6.00 Build 0)  -->
<!DOCTYPE svg PUBLIC "-//W3C//DTD SVG 1.1 Tiny//EN" "http://www.w3.org/Graphics/SVG/1.1/DTD/svg11-tiny.dtd">
<svg version="1.1" baseProfile="tiny" id="Layer_1" xmlns="http://www.w3.org/2000/svg" xmlns:xlink="http://www.w3.org/1999/xlink"
	 x="0px" y="0px" width="100px" height="100px" viewBox="0 0 100 100" xml:space="preserve">
<g>
	<path fill="#0C74B3" d="M93.727,99.218C91.974,86.514,79.59,76.666,64.56,76.666H35.167C20.141,76.666,7.753,86.514,6,99.218
		H93.727z"/>
	<g>
		<path fill="#FFFFFF" d="M6,99.218h87.727c-0.089-0.648-0.213-1.288-0.357-1.92H6.357C6.214,97.93,6.09,98.569,6,99.218z"/>
		<path fill="#FFFFFF" d="M35.167,76.666c-5.227,0-10.131,1.194-14.383,3.282h58.16c-4.252-2.088-9.158-3.282-14.385-3.282H35.167z"
			/>
		<path fill="#FFFFFF" d="M12.514,85.993c-1.487,1.569-2.764,3.296-3.793,5.148h82.286c-1.028-1.853-2.306-3.579-3.793-5.148H12.514
			z"/>
	</g>
	<path fill="#ECB982" d="M64.56,76.666h-2.68v-6.661H38.273v6.661h-3.105c-0.463,0-0.924,0.011-1.382,0.029v4.385
		c0,8.412,6.818,15.231,15.231,15.231h1.694c8.411,0,15.23-6.819,15.23-15.231v-4.385C65.483,76.677,65.022,76.666,64.56,76.666z"/>
	<path fill="#F6C790" d="M68.848,49.09c0,17.042-8.531,30.858-19.055,30.858c-10.524,0-19.056-13.816-19.056-30.858
		c0-17.043,0-30.859,19.056-30.859C68.848,18.231,68.848,32.047,68.848,49.09z"/>
	<polygon fill="#EC1B30" points="30.18,34.047 26.201,45.703 21.518,42.614 29.718,32.983 	"/>
	<polygon fill="#EC1B30" points="19.924,29.463 29.718,32.983 29.718,34.443 20.621,35.042 	"/>
	<path fill="#EC1B30" d="M50.016,12.787L29.19,32.053c0,0,1.395,2.092,1.395,3.986c0,1.892,0,7.572,0,7.572s0.997,0,2.193,0
		c1.195,0,1.793-1.411,1.793-2.591c0-1.181,0-2.988,0-2.988s-0.199-2.989,3.787-2.989c1.543,0,6.606,0,11.658,0
		c5.051,0,10.113,0,11.657,0c3.985,0,3.786,2.989,3.786,2.989s0,1.808,0,2.988c0,1.18,0.598,2.591,1.794,2.591
		c1.195,0,2.191,0,2.191,0s0-6.077,0-7.572s1.396-3.986,1.396-3.986L50.016,12.787z"/>
	<circle fill="#323830" cx="57.243" cy="44.008" r="4.646"/>
	
		<rect x="42.209" y="43.582" transform="matrix(0.8153 0.5791 -0.5791 0.8153 36.046 -24.9752)" fill="#323830" width="29.918" height="0.853"/>
	<path fill="#323830" d="M56.438,2.157v4.242c0,3.548-2.876,6.423-6.423,6.423c-3.548,0-6.424-2.875-6.424-6.423V2.135
		C22.605,4.644,16.437,19.199,16.437,19.199L29.19,32.053c0,0,7.772-3.189,20.825-3.189c13.052,0,20.824,3.189,20.824,3.189
		l12.754-12.854C83.594,19.199,77.3,4.729,56.438,2.157z"/>
	<path fill="#323830" d="M68.887,54.396c-8.246,0-7.955,7.59-7.955,7.59c0,6.438-5.221,11.658-11.658,11.658
		c-6.439,0-11.658-5.22-11.658-11.658c0,0,0.139-7.59-6.917-7.59l-4.71,23.059c1.612,0.329,3.194-0.365,4.075-1.638v5.425
		c2.201,0,3.985-1.783,3.985-3.984v7.876c2.2,0,3.984-1.783,3.984-3.984v7.876c2.2,0,3.984-1.783,3.984-3.983v3.983
		c2.201,0,3.983-1.783,3.983-3.983v3.983c1.794,0,3.292-1.192,3.792-2.823c0.5,1.631,1.999,2.823,3.793,2.823v-3.983
		c0,2.2,1.783,3.983,3.983,3.983v-3.983c0,2.2,1.783,3.983,3.984,3.983v-7.876c0,2.201,1.784,3.984,3.984,3.984v-7.876
		c0,2.201,1.784,3.984,3.984,3.984v-5.425c0.88,1.272,2.463,1.967,4.075,1.638L68.887,54.396z"/>
	<path fill="#323830" d="M54.22,55.229H45.78c-1.358,0-2.459,1.102-2.459,2.46v1.186v3.261v3.446c1.844,0,3.339-1.495,3.339-3.341
		v3.341c1.845,0,3.34-1.495,3.34-3.341c0,1.846,1.495,3.341,3.34,3.341V62.24c0,1.846,1.496,3.341,3.341,3.341v-3.446v-3.261v-1.186
		C56.681,56.33,55.579,55.229,54.22,55.229z"/>
	<g>
		<g>
			<circle fill="#FFFFFF" cx="43.742" cy="16.708" r="1.793"/>
			<circle fill="#FFFFFF" cx="57.242" cy="24.53" r="1.046"/>
			
				<rect x="42.69" y="20.193" transform="matrix(0.8653 0.5013 -0.5013 0.8653 17.1375 -22.5326)" fill="#FFFFFF" width="15.604" height="0.853"/>
		</g>
		<g>
			<circle fill="#FFFFFF" cx="56.495" cy="16.708" r="1.793"/>
			<circle fill="#FFFFFF" cx="42.994" cy="24.53" r="1.046"/>
			
				<rect x="49.318" y="12.818" transform="matrix(0.5017 0.865 -0.865 0.5017 42.6222 -32.7568)" fill="#FFFFFF" width="0.853" height="15.602"/>
		</g>
	</g>
</g>
</svg>
